<svg viewBox="0 0 24 24" fill="none" xmlns="http://www.w3.org/2000/svg">
<path d="M12 3.39263C14.8035 3.39263 15.136 3.40313 16.2438 3.45388C19.0893 3.58338 20.4184 4.9335 20.5479 7.758C20.5986 8.86487 20.6082 9.19738 20.6082 12.0009C20.6082 14.8053 20.5977 15.1369 20.5479 16.2438C20.4175 19.0656 19.0919 20.4184 16.2438 20.5479C15.136 20.5986 14.8053 20.6091 12 20.6091C9.1965 20.6091 8.864 20.5986 7.75713 20.5479C4.90463 20.4175 3.5825 19.0613 3.453 16.2429C3.40225 15.136 3.39175 14.8044 3.39175 12C3.39175 9.1965 3.40313 8.86488 3.453 7.75713C3.58338 4.9335 4.909 3.5825 7.75713 3.453C8.86488 3.40313 9.1965 3.39263 12 3.39263V3.39263ZM12 1.5C9.14837 1.5 8.79137 1.51225 7.67137 1.563C3.85813 1.738 1.73888 3.85375 1.56387 7.6705C1.51225 8.79138 1.5 9.14837 1.5 12C1.5 14.8516 1.51225 15.2095 1.563 16.3295C1.738 20.1427 3.85375 22.262 7.6705 22.437C8.79138 22.4877 9.14837 22.5 12 22.5C14.8516 22.5 15.2095 22.4877 16.3295 22.437C20.1393 22.262 22.2638 20.1462 22.4361 16.3295C22.4878 15.2095 22.5 14.8516 22.5 12C22.5 9.14837 22.4877 8.79137 22.437 7.67137C22.2655 3.86162 20.1471 1.73888 16.3304 1.56387C15.2095 1.51225 14.8516 1.5 12 1.5V1.5ZM12 6.60825C9.02237 6.60825 6.60825 9.02237 6.60825 12C6.60825 14.9776 9.02237 17.3926 12 17.3926C14.9776 17.3926 17.3918 14.9785 17.3918 12C17.3918 9.02237 14.9776 6.60825 12 6.60825ZM12 15.5C10.0671 15.5 8.5 13.9338 8.5 12C8.5 10.0671 10.0671 8.5 12 8.5C13.9329 8.5 15.5 10.0671 15.5 12C15.5 13.9338 13.9329 15.5 12 15.5ZM17.6053 5.13563C16.9088 5.13563 16.3444 5.7 16.3444 6.39562C16.3444 7.09125 16.9088 7.65562 17.6053 7.65562C18.3009 7.65562 18.8644 7.09125 18.8644 6.39562C18.8644 5.7 18.3009 5.13563 17.6053 5.13563Z" fill="currentColor"/>
</svg>