<svg viewBox="0 0 24 24" fill="none" xmlns="http://www.w3.org/2000/svg">
<path d="M20.248 1.5H3.74976C2.50771 1.5 1.5 2.50771 1.5 3.74976V20.248C1.5 21.4901 2.50771 22.4978 3.74976 22.4978H20.248C21.4901 22.4978 22.4978 21.4901 22.4978 20.248V3.74976C22.4978 2.50771 21.4901 1.5 20.248 1.5ZM17.9561 8.94296C17.9654 9.07419 17.9654 9.21012 17.9654 9.34135C17.9654 13.405 14.872 18.0873 9.21949 18.0873C7.47593 18.0873 5.85891 17.5811 4.49968 16.7093C4.74809 16.7374 4.98713 16.7468 5.24023 16.7468C6.67914 16.7468 8.00087 16.2594 9.05544 15.4345C7.70559 15.4063 6.57133 14.5205 6.18231 13.3019C6.6557 13.3722 7.08222 13.3722 7.56966 13.2456C6.16356 12.9597 5.10899 11.7223 5.10899 10.2272V10.1897C5.51676 10.4194 5.99483 10.56 6.49634 10.5787C5.63956 10.0088 5.12539 9.04748 5.12727 8.01915C5.12727 7.44733 5.27725 6.92239 5.54441 6.46775C7.05831 8.33318 9.33151 9.5518 11.8812 9.68303C11.4453 7.59732 13.0061 5.90531 14.8809 5.90531C15.7668 5.90531 16.5635 6.27558 17.126 6.87552C17.8197 6.74428 18.4852 6.4865 19.0758 6.13497C18.8461 6.8474 18.3634 7.44733 17.7259 7.82698C18.3446 7.76136 18.9445 7.58794 19.4976 7.34891C19.0805 7.9629 18.556 8.50707 17.9561 8.94296Z" fill="currentColor"/>
</svg>
