<svg viewBox="0 0 24 24" fill="none" xmlns="http://www.w3.org/2000/svg">
<path d="M22.4978 2.65769V21.3354C22.4978 21.9775 21.9775 22.4931 21.3401 22.4931H15.9875V14.3658H18.7154L19.1231 11.1974H15.9828V9.17262C15.9828 8.25397 16.2359 7.6306 17.553 7.6306H19.2309V4.79496C18.9403 4.75747 17.9467 4.66841 16.7843 4.66841C14.3658 4.66841 12.7066 6.14482 12.7066 8.85859V11.1974H9.96941V14.3658H12.7066V22.4978H2.65769C2.02026 22.4978 1.5 21.9775 1.5 21.3401V2.65769C1.5 2.02026 2.02026 1.5 2.65769 1.5H21.3354C21.9775 1.5 22.4978 2.02026 22.4978 2.65769Z" fill="currentColor"/>
</svg>
