<svg viewBox="0 0 24 24" fill="none" xmlns="http://www.w3.org/2000/svg">
<path d="M12 1.5C6.1996 1.5 1.5 6.1996 1.5 12C1.5 17.8004 6.1996 22.5 12 22.5C17.8004 22.5 22.5 17.8004 22.5 12C22.5 6.1996 17.8004 1.5 12 1.5ZM17.1569 8.69335L15.4337 16.8139C15.3067 17.3897 14.9637 17.5294 14.4853 17.2585L11.8603 15.3236L10.5944 16.5429C10.4546 16.6827 10.3361 16.8012 10.0651 16.8012L10.2514 14.1296L15.1161 9.73488C15.3278 9.54859 15.0696 9.44274 14.7901 9.62903L8.77802 13.4141L6.1869 12.6054C5.62379 12.4276 5.61109 12.0423 6.30544 11.7714L16.4286 7.86774C16.8986 7.69839 17.3093 7.98206 17.1569 8.69335V8.69335Z" fill="currentColor"/>
</svg>
