<svg viewBox="0 0 24 24" fill="none" xmlns="http://www.w3.org/2000/svg">
    <path
            d="M15.9315 11.3987C15.9315 12.1304 15.3916 12.7303 14.7073 12.7303C14.0352 12.7303 13.4831 12.1304 13.4831 11.3983C13.4831 10.6662 14.023 10.0662 14.7068 10.0662C15.3907 10.0662 15.9306 10.6662 15.9306 11.3978L15.9315 11.3987ZM10.3278 10.0667C9.64347 10.0667 9.10352 10.6666 9.10352 11.3983C9.10352 12.1299 9.65518 12.7299 10.3273 12.7299C11.0111 12.7299 11.5511 12.1299 11.5511 11.3978C11.5628 10.6657 11.0111 10.0658 10.3268 10.0658L10.3278 10.0667ZM22.9984 2.47142V23.9971C19.9753 21.3255 20.9422 22.21 17.4307 18.9455L18.0663 21.1652H4.45974C3.10379 21.1652 2 20.061 2 18.6933V2.47095C2 1.10281 3.10388 -0.000976562 4.45974 -0.000976562H20.538C21.8935 -0.000976562 22.9978 1.10291 22.9978 2.47048L22.9984 2.47142ZM19.5788 13.8458C19.5788 9.98186 17.8507 6.85057 17.8507 6.85057C16.1226 5.55462 14.4789 5.59071 14.4789 5.59071L14.3106 5.78241C16.3504 6.40625 17.2981 7.30624 17.2981 7.30624C14.4475 5.74407 11.0995 5.7436 8.33504 6.958C7.89072 7.16188 7.62712 7.30578 7.62712 7.30578C7.62712 7.30578 8.62264 6.35759 10.7824 5.73394L10.6624 5.58958C10.6624 5.58958 9.01859 5.55349 7.29078 6.84945C7.29078 6.84945 5.56268 9.98111 5.56268 13.8447C5.56268 13.8447 6.57039 15.5845 9.22229 15.6684C9.22229 15.6684 9.66615 15.1285 10.0261 14.6724C8.50227 14.2164 7.92634 13.2565 7.92634 13.2565C8.10257 13.3798 8.39363 13.54 8.418 13.5565C10.4433 14.6902 13.32 15.0619 15.9052 13.9764C16.3252 13.8203 16.7929 13.5921 17.2851 13.2682C17.2851 13.2682 16.6851 14.252 15.1131 14.696C15.4731 15.1516 15.9047 15.6677 15.9047 15.6677C18.5562 15.5833 19.5761 13.8435 19.5761 13.8435L19.5788 13.8458Z" fill="currentColor"/>
</svg>
