<svg viewBox="0 0 24 24" fill="none" xmlns="http://www.w3.org/2000/svg">
<path d="M14.7736 16.1937C14.9001 16.3203 14.9001 16.5125 14.7736 16.6249C13.6253 17.7733 10.3772 17.778 9.22418 16.6249C9.09763 16.5125 9.09763 16.3203 9.22418 16.1937C9.33666 16.0813 9.52883 16.0813 9.64132 16.1937C10.5178 17.0936 13.4378 17.1124 14.3518 16.1937C14.4642 16.0859 14.6611 16.0859 14.7736 16.1937ZM10.4944 13.6721C10.4944 12.9738 9.9366 12.416 9.2523 12.416C8.55393 12.416 7.99618 12.9738 7.99618 13.6721C7.99618 14.3564 8.55393 14.9142 9.2523 14.9142C9.9366 14.9142 10.4944 14.3564 10.4944 13.6721ZM14.7455 12.416C14.0612 12.416 13.5034 12.9738 13.5034 13.6721C13.5034 14.3564 14.0612 14.9142 14.7455 14.9142C15.4438 14.9142 16.0016 14.3564 16.0016 13.6721C16.0016 12.9738 15.4438 12.416 14.7455 12.416ZM22.4978 3.74976V20.248C22.4978 21.4901 21.4901 22.4978 20.248 22.4978H3.74976C2.50771 22.4978 1.5 21.4901 1.5 20.248V3.74976C1.5 2.50771 2.50771 1.5 3.74976 1.5H20.248C21.4901 1.5 22.4978 2.50771 22.4978 3.74976ZM17.8248 10.3397C17.3514 10.3397 16.9343 10.5365 16.6249 10.8412C15.4954 10.0585 13.9768 9.55695 12.2895 9.50071L13.1659 5.55426L15.9547 6.18231C15.9547 6.86661 16.5125 7.42437 17.1968 7.42437C17.8951 7.42437 18.4529 6.85255 18.4529 6.16825C18.4529 5.48395 17.8951 4.91214 17.1968 4.91214C16.7093 4.91214 16.2922 5.20273 16.0813 5.6105L13.0019 4.9262C12.8472 4.88401 12.6972 4.9965 12.6551 5.15117L11.6942 9.50071C10.021 9.57101 8.51644 10.0725 7.38687 10.8553C7.08222 10.5365 6.64633 10.3397 6.17294 10.3397C4.41531 10.3397 3.83881 12.7019 5.44645 13.5034C5.39021 13.7565 5.36209 14.019 5.36209 14.2861C5.36209 16.9343 8.34771 19.0809 12.0129 19.0809C15.6922 19.0809 18.6779 16.9343 18.6779 14.2861C18.6779 14.019 18.6497 13.7424 18.5794 13.4893C20.1543 12.6832 19.5731 10.3397 17.8248 10.3397V10.3397Z" fill="currentColor"/>
</svg>
