<?xml version="1.0" standalone="no"?>
<!DOCTYPE svg PUBLIC "-//W3C//DTD SVG 20010904//EN"
 "http://www.w3.org/TR/2001/REC-SVG-20010904/DTD/svg10.dtd">
<svg version="1.0" xmlns="http://www.w3.org/2000/svg"
 width="700.000000pt" height="700.000000pt" viewBox="0 0 700.000000 700.000000"
 preserveAspectRatio="xMidYMid meet">
<metadata>
Created by potrace 1.14, written by Peter Selinger 2001-2017
</metadata>
<g transform="translate(0.000000,700.000000) scale(0.100000,-0.100000)"
fill="#000000" stroke="none">
<path d="M3180 6899 c-683 -63 -1346 -341 -1875 -784 -401 -337 -725 -768
-930 -1240 -191 -438 -285 -891 -285 -1375 0 -685 189 -1316 564 -1885 519
-787 1343 -1322 2279 -1480 366 -61 761 -61 1133 0 1022 169 1910 796 2417
1705 517 927 569 2071 137 3047 -502 1134 -1576 1900 -2825 2013 -130 12 -480
11 -615 -1z m770 -130 c231 -120 512 -433 730 -813 67 -116 126 -245 154 -336
10 -30 21 -64 26 -75 33 -73 67 -256 81 -435 10 -130 4 -318 -17 -498 l-6 -52
49 -48 c26 -26 81 -76 120 -112 39 -35 69 -68 66 -74 -3 -5 -2 -6 4 -3 12 8
187 -170 265 -268 452 -572 603 -1364 397 -2085 -148 -516 -489 -962 -984
-1285 -304 -199 -634 -328 -1010 -396 -163 -30 -571 -37 -750 -14 -346 45
-695 166 -992 343 -511 306 -813 715 -926 1257 -42 199 -52 312 -52 585 1 221
4 271 23 372 63 332 201 610 401 809 79 78 112 103 183 139 151 74 272 67 363
-24 64 -64 88 -126 88 -221 -1 -104 -27 -182 -148 -435 -143 -300 -155 -341
-176 -607 -25 -324 31 -636 164 -899 112 -222 346 -488 574 -650 160 -114 352
-190 548 -217 243 -34 298 -32 303 15 2 13 -3 30 -11 37 -8 6 -74 20 -146 31
-244 36 -446 109 -616 223 -337 226 -610 623 -680 990 -20 106 -20 397 0 492
32 151 93 211 206 202 157 -13 260 -138 364 -439 26 -76 53 -145 60 -155 9
-12 27 -18 55 -18 67 0 81 31 105 232 13 107 100 246 209 332 128 102 261 150
441 158 238 11 418 -51 581 -201 135 -123 209 -247 279 -468 25 -81 51 -150
57 -154 28 -17 44 82 28 181 -36 236 -185 480 -379 624 -191 142 -422 200
-717 180 -138 -10 -228 -31 -380 -89 -274 -106 -414 -116 -531 -37 -131 88
-143 292 -28 449 115 157 525 331 966 412 220 41 415 51 679 35 124 -8 272
-14 330 -14 102 0 105 1 108 23 8 54 -70 88 -270 119 -156 24 -520 24 -713 0
-310 -39 -459 -71 -649 -142 -77 -29 -171 -60 -209 -69 -65 -16 -69 -16 -111
3 -152 67 -358 266 -465 450 -45 76 -154 334 -194 456 -65 199 -96 382 -104
610 -9 262 25 743 63 874 22 76 68 121 123 121 90 0 246 -72 411 -190 169
-121 192 -125 315 -54 179 102 342 175 470 208 65 16 82 19 255 40 181 23 179
21 231 181 44 134 157 360 204 408 34 35 41 38 74 32 20 -4 70 -24 111 -46z"/>
<path d="M3350 5906 c0 -2 8 -10 18 -17 15 -13 16 -12 3 4 -13 16 -21 21 -21
13z"/>
<path d="M3445 5800 c33 -33 62 -60 64 -60 3 0 -21 27 -54 60 -33 33 -62 60
-64 60 -3 0 21 -27 54 -60z"/>
<path d="M4528 5463 c7 -3 16 -2 19 1 4 3 -2 6 -13 5 -11 0 -14 -3 -6 -6z"/>
<path d="M4188 5453 c6 -2 18 -2 25 0 6 3 1 5 -13 5 -14 0 -19 -2 -12 -5z"/>
<path d="M4448 5453 c6 -2 18 -2 25 0 6 3 1 5 -13 5 -14 0 -19 -2 -12 -5z"/>
<path d="M4028 5340 c-9 -6 -26 -26 -38 -45 -41 -66 -157 -105 -261 -86 -96
17 -149 -16 -149 -92 0 -48 35 -82 99 -96 187 -40 396 37 477 176 32 53 27
101 -13 133 -27 21 -86 26 -115 10z"/>
<path d="M2642 4873 c-79 -83 -122 -98 -253 -90 -98 6 -100 6 -130 -21 -20
-18 -30 -37 -31 -57 -2 -75 27 -100 136 -116 172 -26 351 48 440 181 41 61 5
145 -67 157 -35 5 -40 3 -95 -54z"/>
<path d="M3253 4840 c-84 -22 -120 -39 -168 -81 -43 -38 -45 -70 -7 -109 27
-27 113 -60 155 -60 18 0 19 -5 14 -65 -11 -113 -46 -151 -171 -182 -58 -14
-74 -14 -123 -3 -48 12 -59 12 -82 -1 -21 -12 -26 -22 -26 -53 0 -50 31 -74
108 -85 167 -23 357 64 403 184 9 25 18 45 19 45 1 0 27 -11 56 -24 107 -48
229 -43 346 14 64 32 129 96 140 138 7 31 -11 71 -39 81 -24 9 -78 -5 -78 -19
0 -5 -16 -25 -37 -45 -98 -95 -296 -81 -371 26 -13 19 -12 24 15 52 49 53 63
79 63 123 0 83 -69 103 -217 64z"/>
<path d="M5681 2964 c0 -11 3 -14 6 -6 3 7 2 16 -1 19 -3 4 -6 -2 -5 -13z"/>
<path d="M5694 2735 c0 -71 1 -99 3 -62 2 37 2 96 0 130 -2 34 -3 4 -3 -68z"/>
<path d="M5681 2514 c0 -11 3 -14 6 -6 3 7 2 16 -1 19 -3 4 -6 -2 -5 -13z"/>
<path d="M5671 2434 c0 -11 3 -14 6 -6 3 7 2 16 -1 19 -3 4 -6 -2 -5 -13z"/>
<path d="M5159 1293 c-13 -16 -12 -17 4 -4 16 13 21 21 13 21 -2 0 -10 -8 -17
-17z"/>
<path d="M5104 1228 l-19 -23 23 19 c12 11 22 21 22 23 0 8 -8 2 -26 -19z"/>
<path d="M4990 1103 l-65 -68 68 65 c62 60 72 70 64 70 -1 0 -32 -30 -67 -67z"/>
<path d="M4854 978 l-19 -23 23 19 c21 18 27 26 19 26 -2 0 -12 -10 -23 -22z"/>
<path d="M4789 923 c-13 -16 -12 -17 4 -4 16 13 21 21 13 21 -2 0 -10 -8 -17
-17z"/>
</g>
</svg>
